<?xml version="1.0" encoding="UTF-8" standalone="no"?>
<svg
   xmlns:dc="http://purl.org/dc/elements/1.1/"
   xmlns:cc="http://creativecommons.org/ns#"
   xmlns:rdf="http://www.w3.org/1999/02/22-rdf-syntax-ns#"
   xmlns:svg="http://www.w3.org/2000/svg"
   xmlns="http://www.w3.org/2000/svg"
   xmlns:sodipodi="http://sodipodi.sourceforge.net/DTD/sodipodi-0.dtd"
   xmlns:inkscape="http://www.inkscape.org/namespaces/inkscape"
   version="1.0"
   width="300.000000pt"
   height="225.000000pt"
   viewBox="0 0 300.000000 225.000000"
   preserveAspectRatio="xMidYMid meet"
   id="svg62"
   sodipodi:docname="lstd_logo.svg"
   inkscape:version="0.92.3 (2405546, 2018-03-11)">
  <defs
     id="defs66">
    <filter
       inkscape:collect="always"
       style="color-interpolation-filters:sRGB"
       id="filter872"
       x="-0.058925044"
       width="1.1178501"
       y="-0.24234589"
       height="1.4846918">
      <feGaussianBlur
         inkscape:collect="always"
         stdDeviation="3.5466552"
         id="feGaussianBlur874" />
    </filter>
  </defs>
  <sodipodi:namedview
     pagecolor="#ffffff"
     bordercolor="#666666"
     borderopacity="1"
     objecttolerance="10"
     gridtolerance="10"
     guidetolerance="10"
     inkscape:pageopacity="0"
     inkscape:pageshadow="2"
     inkscape:window-width="1617"
     inkscape:window-height="1005"
     id="namedview64"
     showgrid="false"
     inkscape:zoom="1.9704709"
     inkscape:cx="203.31965"
     inkscape:cy="154.01331"
     inkscape:window-x="226"
     inkscape:window-y="18"
     inkscape:window-maximized="0"
     inkscape:current-layer="svg62" />
  <metadata
     id="metadata2">
Created by potrace 1.10, written by Peter Selinger 2001-2011
<rdf:RDF>
  <cc:Work
     rdf:about="">
    <dc:format>image/svg+xml</dc:format>
    <dc:type
       rdf:resource="http://purl.org/dc/dcmitype/StillImage" />
    <dc:title></dc:title>
  </cc:Work>
</rdf:RDF>
</metadata>
  <g
     id="g4580"
     transform="matrix(1.8511221,0,0,1.8511221,-110.55847,-84.752042)">
    <g
       transform="matrix(1,0,0,0.81705463,0,18.31155)"
       style="fill:#e4e4e4;fill-opacity:1;stroke:none;stroke-opacity:1"
       id="g123">
      <path
         style="fill:#e4e4e4;fill-opacity:1;stroke:none;stroke-width:0.1;stroke-opacity:1"
         inkscape:connector-curvature="0"
         id="path4"
         d="m 144.7,56.7 c -0.4,0.3 -0.7,1.6 -0.8,2.7 0,1.3 -2.1,3.7 -5.4,6.3 -4.9,3.9 -5.9,4.3 -10.9,4.3 -3.1,0 -5.6,-0.4 -5.6,-0.9 0,-0.5 -1,-1.3 -2.2,-1.7 -3.9,-1.2 -6.5,4.6 -2.9,6.5 1.4,0.8 2.3,0.6 3.8,-0.8 1.4,-1.4 3.4,-1.8 7.6,-1.7 5.3,0.1 5.9,-0.1 11.1,-4.7 4.7,-4 5.9,-4.6 7.5,-3.7 1.7,0.9 2.3,0.6 3.8,-1.6 1.6,-2.5 1.6,-2.7 -0.2,-4 -2,-1.5 -4.7,-1.8 -5.8,-0.7 z m 5.3,2.2 c 0,0.6 -0.5,1.3 -1.2,1.7 -0.7,0.4 -0.8,0.3 -0.4,-0.4 1,-1.6 -0.6,-1.5 -2.4,0 -1.2,1.1 -1.2,1 -0.1,-0.5 1.4,-1.8 4.1,-2.3 4.1,-0.8 z M 120.5,69 c 0.3,0.5 0.1,1 -0.4,1 -0.6,0 -1.1,-0.5 -1.1,-1 0,-0.6 0.2,-1 0.4,-1 0.3,0 0.8,0.4 1.1,1 z m -1,3 c -0.3,0.5 -1.1,1 -1.6,1 -0.6,0 -0.7,-0.5 -0.4,-1 0.3,-0.6 1.1,-1 1.6,-1 0.6,0 0.7,0.4 0.4,1 z" />
      <path
         style="fill:#e4e4e4;fill-opacity:1;stroke:none;stroke-width:0.1;stroke-opacity:1"
         inkscape:connector-curvature="0"
         id="path6"
         d="m 176.3,64.1 c -0.5,0.5 -3.9,1 -7.4,1.1 -5.8,0.1 -6.8,0.4 -10.6,3.6 -2.4,1.9 -4.3,3.9 -4.3,4.4 0,0.6 2,-0.6 4.5,-2.6 4.3,-3.6 4.7,-3.7 12,-3.5 4.1,0.1 7.2,0.5 7,1 -1,1.5 1.7,2.1 3.2,0.6 1.2,-1.1 1.3,-1.9 0.4,-3.6 -1.3,-2.3 -3.1,-2.7 -4.8,-1 z m 3.2,2 c 1.1,1.6 0.1,1.9 -1.3,0.3 -0.7,-0.8 -0.8,-1.4 -0.3,-1.4 0.5,0 1.3,0.5 1.6,1.1 z" />
      <path
         style="fill:#e4e4e4;fill-opacity:1;stroke:none;stroke-width:0.1;stroke-opacity:1"
         inkscape:connector-curvature="0"
         id="path8"
         d="m 67.4,67.2 c -0.4,0.7 -0.3,0.8 0.4,0.4 0.7,-0.4 1.2,-0.2 1.2,0.3 0,0.6 -0.9,1.1 -2.1,1.1 -2.7,0 -2,2.1 1.5,4 2.5,1.4 2.9,1.3 4.4,-0.5 1.6,-1.9 2.7,-2 16.1,-1.7 11.2,0.2 14.9,0.7 16.8,2 2.4,1.5 2.6,1.5 4.5,-0.8 1.9,-2.3 1.9,-2.4 -0.1,-4.3 -1.9,-1.9 -2.1,-1.9 -4.5,-0.4 -3.5,2.3 -30.1,2.4 -33,0.2 -2.4,-1.8 -4.2,-1.9 -5.2,-0.3 z m 41.6,1.2 c 0,0.2 -0.9,0.6 -2,0.9 -1.1,0.3 -2,0.1 -2,-0.4 0,-0.5 0.9,-0.9 2,-0.9 1.1,0 2,0.2 2,0.4 z M 72,71 c 0,0.5 -0.8,1 -1.7,1 -1.5,0 -1.6,-0.2 -0.3,-1 1.9,-1.2 2,-1.2 2,0 z m 38,-0.4 c 0,0.8 -1.9,1.3 -2.4,0.6 -0.3,-0.5 0.1,-0.9 0.9,-0.9 0.8,0 1.5,0.2 1.5,0.3 z" />
      <path
         style="fill:#e4e4e4;fill-opacity:1;stroke:none;stroke-width:0.1;stroke-opacity:1"
         inkscape:connector-curvature="0"
         id="path10"
         d="m 201.5,72.2 c -0.4,1 -5,1.2 -19.3,1 l -18.7,-0.3 -6,6.1 c -3.3,3.3 -6.7,6 -7.6,6 -0.9,0 -2.3,0.8 -3.3,1.8 -1.5,1.8 -1.5,2 0.4,3.7 1.6,1.4 2.2,1.5 3.5,0.5 0.8,-0.7 1.5,-1.8 1.4,-2.4 0,-0.7 -0.2,-0.6 -0.6,0.1 -0.6,1.5 -4.3,1.8 -4.3,0.3 0,-0.5 0.7,-0.7 1.5,-0.3 0.9,0.3 1.5,0.2 1.3,-0.3 -0.2,-0.5 0,-0.9 0.4,-0.9 0.4,0 3.6,-2.8 7.1,-6.3 l 6.4,-6.4 18.4,0.2 c 10.3,0 18.8,0.5 19.3,1 2.7,2.7 8,-0.7 5.6,-3.5 -1.5,-1.8 -4.9,-2 -5.5,-0.3 z m 3.5,1.6 c 0,1.3 -1.2,2.2 -2.2,1.6 -1,-0.6 -0.1,-2.4 1.3,-2.4 0.5,0 0.9,0.4 0.9,0.8 z" />
      <path
         style="fill:#e4e4e4;fill-opacity:1;stroke:none;stroke-width:0.1;stroke-opacity:1"
         inkscape:connector-curvature="0"
         id="path12"
         d="m 148.6,73.7 c -2.5,2.6 2.3,7.3 5.2,5.1 1.3,-1.1 1.7,-3.2 0.4,-2.4 -0.4,0.2 -1.4,0.1 -2.2,-0.5 -1,-0.6 -1.1,-0.9 -0.2,-0.9 0.6,0 1.2,-0.4 1.2,-0.8 0,-0.9 -3.6,-1.3 -4.4,-0.5 z m 3.4,3.6 c 1.1,0.5 0.9,0.6 -0.4,0.4 -1.1,-0.1 -2.1,-0.9 -2.3,-1.7 -0.3,-1 -0.2,-1.1 0.4,-0.4 0.4,0.6 1.5,1.4 2.3,1.7 z" />
      <path
         style="fill:#e4e4e4;fill-opacity:1;stroke:none;stroke-width:0.1;stroke-opacity:1"
         inkscape:connector-curvature="0"
         id="path14"
         d="m 88.2,81 c -0.7,1.2 -1,2.5 -0.7,3 0.9,1.4 4.1,1.2 5.3,-0.3 0.9,-1 4.4,-1.2 14.8,-0.9 l 13.7,0.3 7.8,4.7 c 4.3,2.6 8.3,5.7 8.8,6.9 1.3,2.8 4.7,3 6.1,0.3 0.9,-1.6 0.8,-1.8 -0.5,-1.4 -0.8,0.4 -1.5,0.1 -1.5,-0.5 0,-0.6 0.5,-1.1 1.1,-1.1 0.5,0 0.7,-0.5 0.4,-1 -0.3,-0.6 -2.2,-0.8 -4.1,-0.6 -1.9,0.3 -4,-0.1 -4.7,-0.7 -0.7,-0.7 -1.9,-1.3 -2.7,-1.5 -0.8,-0.2 -2.2,-0.9 -3,-1.6 -0.8,-0.6 -2.7,-1.8 -4.2,-2.6 -1.6,-0.7 -2.8,-1.6 -2.8,-1.9 0,-0.3 -6.4,-0.7 -14.3,-0.9 -8,-0.1 -14.3,-0.7 -14.5,-1.2 -0.6,-1.7 -3.7,-1.1 -5,1 z m 3.1,0.7 c -0.5,1.2 -0.3,1.4 0.7,0.8 0.9,-0.5 1.1,-0.4 0.6,0.4 -0.6,0.9 -1.1,0.9 -2.2,0 -1.2,-1 -1.2,-1.4 -0.2,-2 1.8,-1.2 1.8,-1.1 1.1,0.8 z m 50.2,12 c 0,2.9 -1.7,2.9 -3,0 -0.9,-1.9 -0.8,-2.2 1,-2.2 1.4,0 2,0.7 2,2.2 z" />
      <path
         style="fill:#e4e4e4;fill-opacity:1;stroke:none;stroke-width:0.1;stroke-opacity:1"
         inkscape:connector-curvature="0"
         id="path16"
         d="m 174.9,83 c -9.5,1.5 -20,7.2 -26.8,14.6 l -5.9,6.5 -2.8,-2.6 c -1.5,-1.4 -3.5,-2.5 -4.5,-2.5 -1.1,0 -1.9,-0.5 -1.9,-1.1 0,-0.5 -0.4,-0.8 -0.9,-0.5 -0.5,0.4 -1.1,0.2 -1.3,-0.2 -0.1,-0.5 -4.2,-2.8 -8.9,-5.1 -8.5,-4.2 -8.6,-4.3 -19.3,-4.2 -11.2,0.1 -12.8,0.3 -21.1,2.7 -6.1,1.8 -20.5,8.5 -20.5,9.6 0,0.4 3.7,-1.1 8.2,-3.2 15.3,-7.2 29.4,-9.5 42.9,-7 6,1.2 28,12.6 28.7,15 0.4,1.2 0,1.1 -1.5,-0.3 -3.9,-3.4 -5,-1.9 -5.5,7.3 -0.2,2.5 -0.7,4.8 -1.3,5.2 -0.5,0.4 -0.6,1 -0.2,1.4 0.9,0.9 5.8,-4.7 5.1,-5.8 -0.3,-0.4 0.2,-1.1 1,-1.4 0.9,-0.3 1.6,-1.3 1.6,-2.1 0,-0.8 1.6,-3 3.5,-4.9 1.9,-1.8 3.5,-3.6 3.5,-3.9 0,-1 7.7,-7.7 11.9,-10.2 5.5,-3.3 16.1,-6.2 22.7,-6.3 10.4,0 25.7,4.2 32.6,9.1 1.6,1.2 3.1,1.9 3.4,1.6 0.9,-0.9 -7.8,-6.2 -13.6,-8.4 -8.9,-3.4 -20.1,-4.7 -29.1,-3.3 z M 138,109.8 c -1.1,1.3 -1.8,2.8 -1.5,3.2 0.3,0.4 -0.2,1.4 -1.1,2.1 -1.3,1.1 -1.4,0.9 -0.8,-1.6 0.4,-1.6 0.8,-4 0.9,-5.4 0.3,-4.1 0.4,-4.2 2.4,-2.4 2,1.6 2,1.7 0.1,4.1 z" />
      <path
         style="fill:#e4e4e4;fill-opacity:1;stroke:none;stroke-width:0.1;stroke-opacity:1"
         inkscape:connector-curvature="0"
         id="path18"
         d="m 184.7,87.7 c -3.9,0.6 -5.3,4.2 -6.2,15.3 -0.8,10.1 -0.1,12.2 0.9,3 2,-16.9 2,-16.9 9.9,-17 3.3,0 3.4,1 0.8,11.1 -1,4.1 -2.6,12.7 -3.6,19.1 -1.8,11.6 -1.9,11.7 -4.8,12.4 -3.1,0.7 -4.2,0 -5,-3.1 -0.4,-1.5 -0.5,-1.4 -0.6,0.7 -0.1,3.2 2.5,5 6,4.1 3.6,-1 4.5,-2.4 4.7,-7 0.1,-2.4 1.4,-10 2.8,-17 1.4,-7.1 3,-14.5 3.4,-16.6 0.6,-3.1 0.4,-3.9 -1.1,-4.7 -1.8,-1 -2.2,-1 -7.2,-0.3 z" />
      <path
         style="fill:#e4e4e4;fill-opacity:1;stroke:none;stroke-width:0.1;stroke-opacity:1"
         inkscape:connector-curvature="0"
         id="path20"
         d="m 169.6,90.2 c -2.2,1.8 -2.9,3.6 -3.6,8.8 -0.5,3.6 -1.2,8.3 -1.5,10.5 -0.5,3.5 -0.4,3.7 0.5,1.5 0.6,-1.4 1.4,-5.6 1.7,-9.5 0.5,-5.9 1.1,-7.4 3.5,-9.8 5.7,-5.8 6.5,-1.2 2.7,17.7 -1.3,6.3 -1.8,11.4 -1.3,14.2 0.8,5.5 -1.1,6.6 -5.5,3.3 -3.3,-2.4 -3.9,-5.6 -2.1,-10.3 0.5,-1.4 0.6,-2.6 0.1,-2.6 -0.5,0 -1.2,1.7 -1.5,3.7 -0.4,2.1 -0.9,4.6 -1.2,5.5 -0.4,1.3 0.8,2.6 4.3,4.8 4.2,2.7 4.9,2.9 5.9,1.5 0.7,-0.9 1.2,-4.8 1.2,-8.8 0,-4 0.9,-10.8 2,-15.3 1,-4.4 1.8,-10 1.8,-12.5 -0.1,-3.7 -0.4,-4.4 -2.2,-4.7 -1.2,-0.2 -3.4,0.7 -4.8,2 z" />
      <path
         style="fill:#e4e4e4;fill-opacity:1;stroke:none;stroke-width:0.1;stroke-opacity:1"
         inkscape:connector-curvature="0"
         id="path22"
         d="m 197.2,91.7 c -0.5,1 -1.2,4.6 -1.6,8 -0.4,3.4 -1.4,8.8 -2.2,11.9 -1.8,7 -3.2,20 -2.4,21.5 0.5,0.7 2.6,0.1 6.3,-1.7 6.4,-3.1 7.1,-4.7 6.2,-13.2 -0.3,-3.2 -0.2,-8.7 0.3,-12.3 1.1,-8.7 -0.4,-15.3 -3.5,-15.7 -1.3,-0.2 -2.5,0.4 -3.1,1.5 z m 4.8,1.2 c 0.6,1.3 0.8,7.8 0.3,18.4 l -0.6,16.4 -4.5,2.2 c -2.4,1.2 -4.7,1.9 -5,1.6 -1,-0.9 4.1,-33.5 5.9,-38.3 1.1,-2.7 2.5,-2.8 3.9,-0.3 z" />
      <path
         style="fill:#e4e4e4;fill-opacity:1;stroke:none;stroke-width:0.1;stroke-opacity:1"
         inkscape:connector-curvature="0"
         id="path24"
         d="m 89.2,93.6 c -2.2,1.5 -3,5.8 -1.3,6.8 0.5,0.4 0.7,-0.3 0.4,-1.4 -0.3,-1.1 0,-2.7 0.7,-3.5 1.4,-1.7 9.8,-3.1 11.1,-1.8 0.5,0.5 1.2,4.4 1.4,8.7 0.3,4.2 0.7,9.2 0.9,10.9 0.2,1.8 0.7,6.3 1.1,10.2 0.4,3.8 0.8,7.9 1,9.1 0.5,3.5 -0.8,4.6 -4.9,3.9 -2.9,-0.6 -3.6,-1.2 -3.6,-3.1 0,-1.3 -0.4,-4.3 -1,-6.6 -0.5,-2.4 -2,-8.9 -3.2,-14.6 -1.3,-5.6 -2.7,-10.2 -3.1,-10.2 -0.5,0 -0.6,1 -0.3,2.2 0.4,1.3 0.9,3.4 1.2,4.8 0.3,1.4 0.9,3.8 1.4,5.5 0.5,1.6 1.2,5 1.5,7.5 0.4,2.4 0.8,4.7 1,5 0.2,0.3 0.6,2.5 1,5 0.4,2.5 0.8,4.7 1,5.1 0.7,1 9.3,1 10,-0.1 0.3,-0.5 -0.1,-8.5 -0.9,-17.7 -0.9,-9.2 -1.7,-18.6 -1.9,-20.8 -0.2,-2.2 -0.6,-4.6 -1.1,-5.3 -1,-1.7 -9.7,-1.5 -12.4,0.4 z" />
      <path
         style="fill:#e4e4e4;fill-opacity:1;stroke:none;stroke-width:0.1;stroke-opacity:1"
         inkscape:connector-curvature="0"
         id="path26"
         d="m 105.7,93.9 c -0.2,1 -0.1,2.4 0.3,3.1 0.5,0.7 0.9,0 1.2,-1.9 0.5,-3.4 -0.7,-4.3 -1.5,-1.2 z" />
      <path
         style="fill:#e4e4e4;fill-opacity:1;stroke:none;stroke-width:0.1;stroke-opacity:1"
         inkscape:connector-curvature="0"
         id="path28"
         d="m 109.6,92.9 c -0.5,0.7 2.7,2.2 5.6,2.5 1.6,0.2 1.9,2.4 2.4,18.2 l 0.6,16.9 -3.6,2.8 c -2,1.5 -3.6,2.5 -3.6,2.2 0,-0.3 -0.5,-3.6 -1,-7.3 -1.6,-10 -1.8,-11.9 -1.9,-21 0,-4.5 -0.5,-8.2 -0.9,-8.2 -0.9,0 -0.7,14.7 0.2,21 0.3,1.9 0.8,6 1.1,9 0.4,3 0.8,6.1 1,6.7 0.7,2.2 3.1,1.4 6.8,-2.1 l 3.6,-3.4 -0.6,-17.3 c -0.3,-9.6 -0.6,-17.5 -0.7,-17.6 0,0 -1,-0.3 -2.1,-0.5 -1.1,-0.1 -2.6,-0.9 -3.3,-1.6 -1.6,-1.4 -2.9,-1.5 -3.6,-0.3 z" />
      <path
         style="fill:#e4e4e4;fill-opacity:1;stroke:none;stroke-width:0.1;stroke-opacity:1"
         inkscape:connector-curvature="0"
         id="path30"
         d="m 158.3,95.8 c -3.2,2.8 -4.3,4.6 -4.7,7.7 -1.4,10.5 -1.5,11.9 -1,10 0.3,-1.1 0.8,-2.7 1.1,-3.5 0.6,-1.5 0.7,-2 1.8,-7.7 0.6,-3.2 6.6,-9.5 7.3,-7.5 0.1,0.5 -0.4,4.3 -1.3,8.3 -0.8,4.1 -1.5,8.6 -1.5,10.1 0,1.5 -0.5,3.9 -1.2,5.3 -1.1,2.4 -1.2,2.4 -3,0.9 -1.7,-1.6 -1.8,-1.6 -1.8,-0.1 0,1 0.4,1.7 0.9,1.7 0.5,0 1.6,0.3 2.5,0.6 1.9,0.7 3.3,-4.3 6.1,-22.5 0.3,-1.9 0.8,-3.7 1,-4.1 0.3,-0.4 -0.1,-1.3 -0.8,-1.8 -1,-0.8 -2.3,-0.2 -5.4,2.6 z" />
      <path
         style="fill:#e4e4e4;fill-opacity:1;stroke:none;stroke-width:0.1;stroke-opacity:1"
         inkscape:connector-curvature="0"
         id="path32"
         d="m 209.2,94.8 c -0.8,0.2 -1.2,2.9 -1.2,8.1 0,4.3 -0.5,11.5 -1.1,16 -0.6,4.5 -0.9,8.4 -0.6,8.7 0.6,0.7 7.7,-2.8 7.7,-3.8 0,-1.2 -1.2,-0.9 -3.4,0.7 -2.7,2.1 -3.5,1.9 -3.1,-0.8 1.1,-6.6 1.7,-15 1.6,-21 -0.1,-7 0.3,-7.6 3.5,-5.2 2.1,1.6 3.4,1.9 3.4,0.7 0,-1.1 -5.4,-3.9 -6.8,-3.4 z" />
      <path
         style="fill:#e4e4e4;fill-opacity:1;stroke:none;stroke-width:0.1;stroke-opacity:1"
         inkscape:connector-curvature="0"
         id="path34"
         d="m 73.9,97.9 c -2.2,1.7 -2.2,2.1 -1.1,6.7 3.2,12.2 4.1,17.2 4.2,21.1 0,3 0.6,4.9 2.1,6.4 2.6,2.6 10.6,6.2 11.9,5.4 2,-1.2 0.6,-9.1 -4.5,-27.1 -0.8,-2.8 -1.5,-5.8 -1.5,-6.7 0,-1 -0.4,-1.7 -0.9,-1.7 -0.6,0 -0.4,2.1 0.4,4.7 0.7,2.7 1.6,6.1 1.9,7.8 0.3,1.6 1.2,5.7 2.1,9 0.9,3.3 1.9,7.7 2.2,9.9 0.5,3.6 0.4,3.8 -1.8,3.1 -4.5,-1.4 -9.9,-5.5 -10.3,-7.8 -0.3,-1.2 -0.8,-4.7 -1.1,-7.7 -0.3,-3 -1.5,-9 -2.7,-13.4 -2.2,-8.5 -2,-8.9 3.1,-10.2 1.5,-0.4 2.6,-0.2 3.2,0.7 0.5,0.8 0.9,0.9 1,0.4 0,-0.6 0.4,-0.1 0.9,1 0.7,1.7 0.9,1.7 0.9,0.3 0.2,-3.7 -6.3,-4.9 -10,-1.9 z" />
      <path
         style="fill:#e4e4e4;fill-opacity:1;stroke:none;stroke-width:0.1;stroke-opacity:1"
         inkscape:connector-curvature="0"
         id="path36"
         d="m 122.9,98.2 c 0,0.2 -0.3,4.5 -0.5,9.5 -0.3,6.4 -0.1,9.3 0.6,9.3 0.6,0 1.1,-1 1,-2.3 -0.1,-1.2 -0.2,-5 -0.1,-8.4 l 0.1,-6.1 2.8,0.7 c 3.1,0.9 3.2,1.7 1.9,13.6 -0.8,6.9 -2.7,11.5 -4.9,11.5 -0.7,0 -0.9,-1.3 -0.5,-3.5 0.3,-1.9 0.1,-3.7 -0.4,-4 -0.5,-0.4 -0.9,1.3 -0.9,3.9 0,2.5 0.5,4.8 1,5.1 0.6,0.4 2.3,-0.7 3.9,-2.4 2.4,-2.5 2.9,-4.1 3.4,-10.7 1.1,-12.1 1,-12.2 -2.5,-14.4 -3,-1.8 -4.7,-2.4 -4.9,-1.8 z" />
      <path
         style="fill:#e4e4e4;fill-opacity:1;stroke:none;stroke-width:0.1;stroke-opacity:1"
         inkscape:connector-curvature="0"
         id="path38"
         d="m 64.8,102.2 c -1.6,0.5 -2.8,1.4 -2.8,1.9 0,0.6 0.8,0.6 1.9,-0.1 3.8,-2 4.9,-1.2 5.6,3.7 0.4,2.7 1.2,6.6 1.8,8.8 3.7,13.9 3.5,14.7 -2.9,9.9 -1.9,-1.5 -3.7,-2.5 -4,-2.2 -0.5,0.6 5.3,5.2 7.9,6.1 2.9,1.1 3.1,-1.6 0.9,-11.6 -1.2,-5 -2.4,-10.8 -2.7,-12.9 -0.6,-4.1 -1.9,-4.9 -5.7,-3.6 z" />
      <path
         style="fill:#e4e4e4;fill-opacity:1;stroke:none;stroke-width:0.1;stroke-opacity:1"
         inkscape:connector-curvature="0"
         id="path40"
         d="m 149.5,103.4 c -0.6,0.8 -2,2.8 -3.3,4.5 -1.3,1.7 -1.8,3.1 -1.2,3.1 0.7,0 1.4,-0.9 1.7,-2 0.3,-1.1 1,-2 1.6,-2 1,0 3.6,-3 3.7,-4.3 0,-1.2 -1.4,-0.8 -2.5,0.7 z" />
      <path
         style="fill:#e4e4e4;fill-opacity:1;stroke:none;stroke-width:0.1;stroke-opacity:1"
         inkscape:connector-curvature="0"
         id="path42"
         d="m 148.7,108.7 c -0.4,0.3 -0.7,1.4 -0.7,2.4 0,1.2 -0.7,1.6 -2.5,1.5 -1.8,-0.3 -3,0.6 -4.8,3.3 -1.4,2 -6.3,7.5 -11.1,12.3 -7.5,7.5 -9.5,8.9 -15.1,10.8 -7.9,2.6 -20.5,2.8 -28.5,0.4 -3,-0.9 -8.5,-3.3 -12.2,-5.4 -3.7,-2.1 -7,-3.5 -7.2,-3.1 -0.8,1.3 13.3,8.3 20.5,10.1 4.6,1.2 9.4,1.7 14.2,1.5 7.3,-0.4 8.6,-0.6 14.5,-2.4 1.7,-0.5 3.2,-0.8 3.2,-0.7 0,0.5 6.9,-5.7 11.8,-10.5 7.2,-7.2 10.2,-10.6 10.2,-11.8 0,-0.6 0.5,-1.1 1,-1.1 0.6,0 1,-0.7 1,-1.5 0,-0.8 0.6,-1.2 1.5,-0.9 0.8,0.3 1.3,1 1.2,1.4 -0.5,1.9 12.1,13.3 18.2,16.7 3.6,1.9 7.8,4.4 9.3,5.4 2.1,1.5 4.5,1.9 11,1.9 10,0 19.4,-2.7 24.6,-7 2,-1.6 4.2,-3 4.9,-3 0.7,0 1.3,-0.5 1.3,-1 0,-1.6 -1,-1.2 -6.4,2.7 -8.8,6.3 -23.7,9 -32.7,5.8 -7.2,-2.6 -17.6,-9.3 -23.5,-15.1 -4.7,-4.8 -7.2,-8.7 -4.4,-6.9 0.6,0.3 1,-0.2 1.1,-1.2 0,-1 0.2,-2.6 0.4,-3.6 0.4,-1.8 0.2,-2.1 -0.8,-1 z" />
      <path
         style="fill:#e4e4e4;fill-opacity:1;stroke:none;stroke-width:0.1;stroke-opacity:1"
         inkscape:connector-curvature="0"
         id="path44"
         d="m 177.7,113.7 c -0.4,0.3 -0.6,3.4 -0.6,6.7 l 0.2,6.1 0.8,-6.5 c 0.8,-6.5 0.8,-7.5 -0.4,-6.3 z" />
      <path
         style="fill:#e4e4e4;fill-opacity:1;stroke:none;stroke-width:0.1;stroke-opacity:1"
         inkscape:connector-curvature="0"
         id="path46"
         d="m 151.5,117 c 0.3,0.5 0.8,1 1.1,1 0.2,0 0.4,-0.5 0.4,-1 0,-0.6 -0.5,-1 -1.1,-1 -0.5,0 -0.7,0.4 -0.4,1 z" />
      <path
         style="fill:#e4e4e4;fill-opacity:1;stroke:none;stroke-width:0.1;stroke-opacity:1"
         inkscape:connector-curvature="0"
         id="path48"
         d="m 143.5,126.4 c -1.6,1.1 -1.7,1.6 -0.6,2.9 0.7,0.9 1.9,1.3 2.7,1 1.9,-0.7 11.2,6.6 11.6,9.1 0.2,1.3 1,2.1 2.3,2.1 1.1,0 1.9,-0.6 1.8,-1.2 -0.2,-0.7 0.3,-1.2 1,-1 0.6,0.1 1.2,-0.5 1.2,-1.3 0,-0.8 -1,-1.6 -2.2,-1.8 -1.8,-0.3 -2.2,0 -1.7,1.5 0.5,1.5 0.4,1.4 -0.9,-0.3 -0.9,-1.1 -3.4,-3.3 -5.6,-4.8 -2.2,-1.5 -4.1,-3.8 -4.3,-4.9 -0.4,-2.7 -2.7,-3.2 -5.3,-1.3 z m 2.9,1.7 c -1.2,1.3 -2,1.6 -2.2,0.9 -0.3,-0.7 0.2,-1.6 0.9,-2.1 2.5,-1.6 3.2,-0.9 1.3,1.2 z" />
      <path
         style="fill:#e4e4e4;fill-opacity:1;stroke:none;stroke-width:0.1;stroke-opacity:1"
         inkscape:connector-curvature="0"
         id="path50"
         d="m 133.3,131.7 c -0.7,0.2 -1.3,1.2 -1.3,2.1 0.1,1.5 0.2,1.5 1.3,0.2 1.1,-1.4 1.4,-1.4 3,0.2 0.9,1 1.3,1.8 0.8,1.8 -0.6,0 -1.3,-0.5 -1.6,-1 -0.4,-0.6 -3.4,1.9 -6.7,5.5 -5.9,6.3 -6.2,6.5 -11.2,6.6 -2.8,0 -6,0.5 -7.1,1 -1.4,0.6 0,0.8 4.5,0.4 l 6.4,-0.5 -3.4,3.5 c -3,3 -4,3.5 -8.2,3.5 -2.6,0 -4.8,0.3 -4.8,0.8 0,0.4 2.3,0.7 5.1,0.7 h 5.1 l 9.9,-10.2 c 6.6,-6.9 10.4,-10.1 11.4,-9.7 2,0.8 3.1,-2.2 1.5,-4.1 -1.3,-1.5 -2.5,-1.7 -4.7,-0.8 z" />
      <path
         style="fill:#e4e4e4;fill-opacity:1;stroke:none;stroke-width:0.1;stroke-opacity:1"
         inkscape:connector-curvature="0"
         id="path54"
         d="m 87.8,146.8 c -2.1,0.4 -2.2,2 -0.4,4.4 1.6,2.2 3.2,2.3 4.3,0.4 0.6,-1 3.2,-1.7 8.2,-2 4,-0.3 7.6,-0.8 8,-1.2 0.3,-0.3 -3.1,-0.4 -7.6,-0.2 -4.6,0.3 -8.3,0.1 -8.3,-0.3 0,-1 -2.2,-1.6 -4.2,-1.1 z m 2.1,2.3 c -1.6,1 -2.3,0.4 -1.4,-1 0.3,-0.6 1.1,-0.8 1.7,-0.5 0.6,0.4 0.5,0.9 -0.3,1.5 z" />
      <path
         style="fill:#e4e4e4;fill-opacity:1;stroke:none;stroke-width:0.1;stroke-opacity:1"
         inkscape:connector-curvature="0"
         id="path56"
         d="m 151,148.5 c -1,1.2 -1,1.8 0,3 1.1,1.3 1.4,1.3 2.7,-0.2 0.8,-1 1.2,-1.4 1,-0.8 -0.3,0.7 7.8,0.9 23.6,0.7 20.9,-0.3 24.2,-0.1 24.9,1.2 1.9,3.3 7.8,0.6 6.4,-2.9 -0.9,-2.4 -3.5,-2.9 -5.5,-1.1 -1.6,1.5 -4.6,1.7 -24.6,1.5 -17.9,-0.2 -22.8,-0.5 -23.2,-1.6 -0.7,-1.8 -3.8,-1.7 -5.3,0.2 z m 55.9,2.6 c -1.6,1 -2.3,0.4 -1.4,-1 0.3,-0.6 1.1,-0.8 1.7,-0.5 0.6,0.4 0.5,0.9 -0.3,1.5 z" />
      <path
         style="fill:#e4e4e4;fill-opacity:1;stroke:none;stroke-width:0.1;stroke-opacity:1"
         inkscape:connector-curvature="0"
         id="path58"
         d="m 97.9,154.2 c -0.6,2.1 -0.5,3.7 0.2,3.2 0.5,-0.3 0.9,0.2 0.9,1 0,2.3 2.7,2 4,-0.4 1.4,-2.6 0.5,-4 -2.6,-4 -1.3,0 -2.4,0.1 -2.5,0.2 z" />
    </g>
    <rect
       ry="1.8485916"
       y="92.778168"
       x="68.529922"
       height="35.123238"
       width="144.45424"
       id="rect860"
       style="opacity:1;fill:#ababab;fill-opacity:0.45410629;stroke:none;stroke-width:0.75836456;stroke-opacity:1;filter:url(#filter872)" />
    <text
       id="text932"
       y="107.61337"
       x="140.75769"
       style="font-style:normal;font-variant:normal;font-weight:normal;font-stretch:normal;font-size:20.19566536px;line-height:0.80000001em;font-family:'Share Tech Mono';-inkscape-font-specification:'Share Tech Mono, Normal';font-variant-ligatures:normal;font-variant-caps:normal;font-variant-numeric:normal;font-feature-settings:normal;text-align:center;letter-spacing:0px;word-spacing:0px;writing-mode:lr-tb;text-anchor:middle;fill:#000000;fill-opacity:1;stroke:none;stroke-width:0.50489163"
       xml:space="preserve"><tspan
         id="tspan934"
         style="font-style:normal;font-variant:normal;font-weight:normal;font-stretch:normal;font-size:20.19566536px;line-height:0.80000001em;font-family:'Share Tech Mono';-inkscape-font-specification:'Share Tech Mono, Normal';font-variant-ligatures:normal;font-variant-caps:normal;font-variant-numeric:normal;font-feature-settings:normal;text-align:center;writing-mode:lr-tb;text-anchor:middle;stroke-width:0.50489163"
         y="107.61337"
         x="140.75769"
         sodipodi:role="line">Life Sciences</tspan><tspan
         id="tspan938"
         style="font-style:normal;font-variant:normal;font-weight:normal;font-stretch:normal;font-size:20.19566536px;line-height:0.80000001em;font-family:'Share Tech Mono';-inkscape-font-specification:'Share Tech Mono, Normal';font-variant-ligatures:normal;font-variant-caps:normal;font-variant-numeric:normal;font-feature-settings:normal;text-align:center;writing-mode:lr-tb;text-anchor:middle;stroke-width:0.50489163"
         y="123.76991"
         x="140.75769"
         sodipodi:role="line">Training Data</tspan></text>
  </g>
</svg>
